<svg id="Layer_1" data-name="Layer 1" xmlns="http://www.w3.org/2000/svg" viewBox="0 0 188 28.2"><defs><style>.cls-1{fill:#f68a41;}.cls-2{fill:#f68a42;}.cls-3{fill:#4b4b4b;}</style></defs><path class="cls-1" d="M24.36,7l-4.08-5L19.5,1a.94.94,0,0,0-.63-.3H5.25a.82.82,0,0,0-.81.82v3H2.65a.83.83,0,0,0-.83.83V26.81a.83.83,0,0,0,.83.83h18a.83.83,0,0,0,.83-.83V25h3a.82.82,0,0,0,.82-.82V8.34a1,1,0,0,0-.19-.52Zm-.74,16.43H16.23V17.19H13.46v6.19H6.07V2.32H18.6V8.51h5Z"/><rect class="cls-2" x="8.32" y="4.56" width="2.78" height="3.95"/><rect class="cls-2" x="13.46" y="4.56" width="2.78" height="3.95"/><rect class="cls-2" x="8.32" y="10.88" width="2.78" height="3.95"/><rect class="cls-2" x="13.46" y="10.88" width="2.78" height="3.95"/><rect class="cls-2" x="18.6" y="10.88" width="2.78" height="3.95"/><rect class="cls-2" x="8.32" y="17.19" width="2.78" height="3.95"/><rect class="cls-2" x="18.6" y="17.19" width="2.78" height="3.95"/><path class="cls-3" d="M185.49,8.14a.9.9,0,1,0,.9.9A.9.9,0,0,0,185.49,8.14Zm0,1.67a.76.76,0,0,1-.76-.77.77.77,0,1,1,.76.77Z"/><path class="cls-3" d="M185.87,8.86c0-.18-.13-.28-.33-.28h-.39v.87h.16v-.3h.19l.21.3h.2l-.24-.32A.27.27,0,0,0,185.87,8.86Zm-.34.15h-.22V8.73h.22c.11,0,.17,0,.17.14S185.64,9,185.53,9Z"/><path class="cls-3" d="M52.46,9.71a5.36,5.36,0,0,0-4.2,1.82,6.53,6.53,0,0,0-1.44,4.26,6.51,6.51,0,0,0,1.44,4.26,5.73,5.73,0,0,0,8.4,0,6.51,6.51,0,0,0,1.44-4.26,6.53,6.53,0,0,0-1.44-4.26A5.36,5.36,0,0,0,52.46,9.71Zm3,9.32a4.18,4.18,0,0,1-6,0,5,5,0,0,1-1.06-3.24,5,5,0,0,1,1.06-3.23,4.16,4.16,0,0,1,6,0,4.92,4.92,0,0,1,1.06,3.23A4.93,4.93,0,0,1,55.46,19Z"/><path class="cls-3" d="M169.09,9.69a5.41,5.41,0,0,0-4.1,1.79,6.35,6.35,0,0,0-1.54,4.25A6.47,6.47,0,0,0,164.94,20a5.39,5.39,0,0,0,4.15,1.83,6.17,6.17,0,0,0,4.73-2.19.79.79,0,1,0-1.26-1,4.64,4.64,0,0,1-3.47,1.57,3.78,3.78,0,0,1-3-1.28,4.72,4.72,0,0,1-1-2.36H174a.79.79,0,0,0,.78-.79A5.91,5.91,0,0,0,169.09,9.69Zm-4,5.34a4.57,4.57,0,0,1,1.09-2.5,3.87,3.87,0,0,1,5.78.05A4.82,4.82,0,0,1,173.1,15Z"/><path class="cls-3" d="M88.38,6.55a.79.79,0,0,0-.79.79v3.82a5.36,5.36,0,0,0-3.66-1.45,5.41,5.41,0,0,0-4.11,1.81,6.42,6.42,0,0,0-1.53,4.27,6.47,6.47,0,0,0,1.49,4.27,5.49,5.49,0,0,0,7.81.36v.43a.79.79,0,1,0,1.58,0V7.34A.79.79,0,0,0,88.38,6.55ZM83.93,20.3A3.82,3.82,0,0,1,81,19a4.92,4.92,0,0,1-1.09-3.23A4.84,4.84,0,0,1,81,12.57a3.82,3.82,0,0,1,2.93-1.29,4.05,4.05,0,0,1,3.66,2.57v3.89A4,4,0,0,1,83.93,20.3Z"/><path class="cls-3" d="M120.92,11.28a4.25,4.25,0,0,1,3.28,1.58.79.79,0,0,0,1.22-1,5.8,5.8,0,0,0-4.5-2.15,6,6,0,0,0-5.9,6.08,6,6,0,0,0,5.9,6.09,5.81,5.81,0,0,0,4.49-2.14.79.79,0,0,0-.1-1.11.8.8,0,0,0-1.12.1,4.22,4.22,0,0,1-3.27,1.57,4.42,4.42,0,0,1-4.32-4.51A4.43,4.43,0,0,1,120.92,11.28Z"/><path class="cls-3" d="M92.16,20.85a.79.79,0,1,0,1.57,0v-5h3.94a4.65,4.65,0,1,0,0-9.29H92.16Zm5.51-6.59H93.73V8.13h3.94a3.07,3.07,0,1,1,0,6.13Z"/><path class="cls-3" d="M67.38,20.06v.79a.79.79,0,0,0,1.58,0v-7a4,4,0,0,0-1.14-3.19,4.75,4.75,0,0,0-3.3-.94,10.49,10.49,0,0,0-3.95,1,.79.79,0,0,0,.64,1.44,9.11,9.11,0,0,1,3.31-.84,3.45,3.45,0,0,1,2.26.55,2.71,2.71,0,0,1,.6,2v.65a14.44,14.44,0,0,0-1.74-.19,7.21,7.21,0,0,0-4.69,1,3.36,3.36,0,0,0-1.36,2.6,3.55,3.55,0,0,0,.63,2.3,3.85,3.85,0,0,0,1.83,1.4,4.83,4.83,0,0,0,1.66.29C65.55,21.86,67.38,20.06,67.38,20.06Zm-4.77,0A2.07,2.07,0,0,1,61.16,18a1.78,1.78,0,0,1,.73-1.43c1.29-1,4-.72,5.49-.46v2.24C65.71,20.32,63.78,20.54,62.61,20.09Z"/><path class="cls-3" d="M111.56,20.06v.79a.79.79,0,0,0,1.58,0v-7A4,4,0,0,0,112,10.65a4.75,4.75,0,0,0-3.3-.94,10.49,10.49,0,0,0-4,1,.79.79,0,0,0,.64,1.44,9.11,9.11,0,0,1,3.31-.84,3.45,3.45,0,0,1,2.26.55,2.71,2.71,0,0,1,.6,2v.65a14.44,14.44,0,0,0-1.74-.19,7.21,7.21,0,0,0-4.69,1,3.36,3.36,0,0,0-1.36,2.6,3.5,3.5,0,0,0,.63,2.3,3.85,3.85,0,0,0,1.83,1.4,4.83,4.83,0,0,0,1.66.29C109.72,21.86,111.56,20.06,111.56,20.06Zm-4.77,0A2.07,2.07,0,0,1,105.34,18a1.78,1.78,0,0,1,.73-1.43c1.29-1,4-.72,5.49-.46v2.24C109.89,20.32,108,20.54,106.79,20.09Z"/><path class="cls-3" d="M147.13,20.06v.79a.79.79,0,0,0,1.58,0v-7a4,4,0,0,0-1.15-3.19,4.72,4.72,0,0,0-3.3-.94,10.59,10.59,0,0,0-3.95,1,.79.79,0,0,0,.64,1.44,9.17,9.17,0,0,1,3.31-.84,3.42,3.42,0,0,1,2.26.55,2.72,2.72,0,0,1,.61,2v.65a14.4,14.4,0,0,0-1.75-.19,7.23,7.23,0,0,0-4.69,1,3.42,3.42,0,0,0-1.36,2.6,3.61,3.61,0,0,0,.63,2.3,3.9,3.9,0,0,0,1.83,1.4,4.87,4.87,0,0,0,1.66.29C145.29,21.86,147.13,20.06,147.13,20.06Zm-4.78,0A2.07,2.07,0,0,1,140.91,18a1.74,1.74,0,0,1,.72-1.43c1.3-1,4-.72,5.5-.46v2.24C145.46,20.32,143.53,20.54,142.35,20.09Z"/><path class="cls-3" d="M132.84,15.19l4.07-3.89a.79.79,0,0,0,0-1.11.78.78,0,0,0-1.11,0l-6.34,6.06V7.34a.79.79,0,1,0-1.58,0V20.85a.79.79,0,0,0,1.58,0V18.4l2.22-2.12,4.58,5.1a.79.79,0,0,0,.59.26.81.81,0,0,0,.52-.2.79.79,0,0,0,.06-1.12Z"/><path class="cls-3" d="M34.09,21.88h7.07a4.23,4.23,0,0,0,1.61-8.14,4.22,4.22,0,0,0-3-7.19H34.09ZM39.76,8.13a2.65,2.65,0,0,1,0,5.3H35.67V8.13Zm1.4,12.17H35.67V15h5.49a2.65,2.65,0,1,1,0,5.3Z"/><path class="cls-3" d="M76.53,9.71c-2.06,0-3.28.3-4.07,1a3,3,0,0,0-.91,1.53,7.63,7.63,0,0,0-.21,2v6.64a.79.79,0,1,0,1.58,0V14.22c0-1.59.29-2.07.58-2.33.47-.41,1.43-.6,3-.6a.79.79,0,1,0,0-1.58Z"/><path class="cls-3" d="M182.35,9.71c-2.06,0-3.28.3-4.07,1a3,3,0,0,0-.91,1.53,7.21,7.21,0,0,0-.21,2v6.64a.79.79,0,1,0,1.57,0V14.22c0-1.59.3-2.07.59-2.33.47-.41,1.43-.6,3-.6a.79.79,0,0,0,0-1.58Z"/><path class="cls-3" d="M161.32,21.62a7.05,7.05,0,0,0-4.83-1.41h-.18c-.58,0-2.45-.09-2.45-1s1.88-1,1.88-1a10,10,0,0,0,2.86-.5h0a5.25,5.25,0,0,0,1.31-.68,3.87,3.87,0,0,0,1.68-3.17A3.21,3.21,0,0,0,160,11.27h1.54a.79.79,0,1,0,0-1.57h-5.05A5.92,5.92,0,0,0,153,10.76a3.84,3.84,0,0,0-1.67,3.16,3.92,3.92,0,0,0,2.72,3.6c-.81.4-1.79.81-1.79,1.82a1.86,1.86,0,0,0,.75,1.42,4.64,4.64,0,0,0-1.42.86,3.14,3.14,0,0,0,0,4.79,9,9,0,0,0,9.7,0,3.12,3.12,0,0,0,0-4.79ZM154,15.81A2.25,2.25,0,0,1,154,12a4.52,4.52,0,0,1,5,0,2.25,2.25,0,0,1,0,3.78,4.52,4.52,0,0,1-5,0Zm2.51,10.44c-4.24,0-4.39-1.93-4.39-2.23s.15-2.24,4.39-2.24,4.39,1.93,4.39,2.24S160.71,26.25,156.47,26.25Z"/></svg>